<svg id="Logo_3a" data-name="Logo 3a" xmlns="http://www.w3.org/2000/svg" viewBox="0 0 692.28 236.48"><title>Ofqual Logo 2018</title><path d="M426.47,415.88H394.19V351.49c-.82.86-1.42,1.46-2,2.09-7.21,8.25-16.23,13.19-27.12,14.3-17.51,1.78-32.91-3.1-45.68-15.41-10-9.68-15.71-21.75-18.45-35.24-3.35-16.51-2.55-32.83,3.18-48.77,3.66-10.17,9.2-19.15,17.39-26.33a53,53,0,0,1,33.34-13.46c7.79-.36,15.42.38,22.57,3.79a47.74,47.74,0,0,1,15.5,11.68c.31.35.66.68,1.16,1.2v-14h32.37ZM395.14,298.43c0-4.6.11-9.2,0-13.8-.25-8.64-3.77-15.68-10.85-20.74-6.18-4.41-13.23-5.82-20.68-5.45-12.62.62-21.78,6.73-26.75,18.24-6,13.84-5.9,28.09-.72,42.17a28.64,28.64,0,0,0,16.71,17.35,35,35,0,0,0,20.28,1.5c13.7-2.76,22.33-13.59,22-26.68C395.06,306.82,395.14,302.62,395.14,298.43Z" transform="translate(-74.81 -179.4)"/><path d="M74.82,298.44c0-14,3-27.3,10.29-39.37,10.12-16.7,25-26.49,44.22-29.57a68.19,68.19,0,0,1,35.76,3.28c18.73,7.19,30.95,20.71,37.52,39.48a81.12,81.12,0,0,1,3.87,34.16A70.68,70.68,0,0,1,194.8,340.5C185,354.92,171.45,363.73,154.41,367c-13.55,2.58-26.94,1.67-39.77-3.71-17.35-7.28-28.9-20.11-35.35-37.65a76,76,0,0,1-4.46-23.69C74.79,300.76,74.82,299.6,74.82,298.44Zm98.89-.6a55.47,55.47,0,0,0-1.59-13.64c-1.73-6.92-4.71-13.18-10.08-18-8.31-7.5-18.19-9.15-28.78-7-10.84,2.25-17.9,9.2-21.8,19.31-4.34,11.24-4.44,22.81-1.77,34.43a33.41,33.41,0,0,0,9.85,17.62,29.62,29.62,0,0,0,18.4,7.78c14.11,1.09,25.71-5.34,31.53-18C172.69,313.44,173.73,306.05,173.71,297.84Z" transform="translate(-74.81 -179.4)"/><path d="M767.08,383.7v32.17H444.59V383.7Z" transform="translate(-74.81 -179.4)"/><path d="M698.14,345.1l-4.73,7.5c-3.07,4.86-6.15,9.72-9.19,14.61a1.49,1.49,0,0,1-1.73.8c-9.74-1.22-17.06-6.12-22.15-14.47-.35-.57-.7-1.15-.85-1.43-1.57,1.4-3.2,2.76-4.71,4.22-7.4,7.21-16.43,10.74-26.56,11.67-9.87.91-19.4-.48-28.28-5.08-10.89-5.64-18.84-14-22-26.05-3.21-12.32-1.5-24,6.75-34.16,5.45-6.71,12.74-10.77,21-12.89,5.21-1.33,10.57-2.11,15.9-2.93,11-1.68,22-3.23,32.95-4.83,1.11-10.06-2.13-20.61-13.77-24-7.63-2.2-15.32-1.85-23-.15a100.48,100.48,0,0,0-24.32,8.61c-.35.18-.71.33-1.19.55-4.16-8.12-8.29-16.18-12.49-24.4,1.78-.89,3.49-1.8,5.25-2.61a119.85,119.85,0,0,1,32.45-10.22c13.35-2.05,26.64-1.94,39.69,1.83,12.14,3.51,21.27,10.81,26.48,22.54A43.63,43.63,0,0,1,687,271.88q.12,29.22.08,58.44c0,5.29,1.94,9.37,6.52,12.12C695.1,343.33,696.58,344.19,698.14,345.1Zm-43.4-40a4.78,4.78,0,0,0-.56,0c-8,1.36-16,2.7-24,4.08-3.54.62-7.13,1-10.42,2.6-3.52,1.69-6.46,4-8,7.72-3.55,8.79,1.31,19.14,10.51,22.36a30.1,30.1,0,0,0,13.85,1.1,20.54,20.54,0,0,0,18.34-19.24c.34-5.26.16-10.54.22-15.82C654.75,307,654.74,306.13,654.74,305.15Z" transform="translate(-74.81 -179.4)"/><path d="M444.5,231.37h32.4v1.56q0,38.86,0,77.75a37.44,37.44,0,0,0,2.44,14.08c2.88,7.21,8.16,11.51,15.81,12.74,8,1.29,15.46-.16,21.81-5.51,4.91-4.14,7.62-9.64,8.87-15.8A56.25,56.25,0,0,0,527,305.37c.1-24.11,0-48.23,0-72.35v-1.63H559.3V365.61H527.11v-13.8c-1,.95-1.83,1.67-2.61,2.42-5.78,5.56-12.17,10.18-20.07,12.15-14.5,3.62-28.44,2.47-41.21-5.87-9.91-6.48-15.47-16-17.66-27.45a61.24,61.24,0,0,1-1-11.31c-.08-29.64,0-59.27,0-88.91Z" transform="translate(-74.81 -179.4)"/><path d="M74.82,383.68H376.1v32.2H74.82Z" transform="translate(-74.81 -179.4)"/><path d="M268,231.3h26.13V259H268v106.6H235.58V259H213.8V231.33h21.78v-1.55c0-6.4-.12-12.8.08-19.19.23-7.77,2.73-14.74,8.2-20.44,4.45-4.63,10-7.28,16.17-8.88a68.33,68.33,0,0,1,21.42-1.7c6.53.39,13.06,1,19.59,1.5a8.63,8.63,0,0,1,1,.2c-.88,8.94-1.75,17.84-2.64,26.91-1.29-.14-2.55-.28-3.8-.39a80.18,80.18,0,0,0-16.39-.35c-4.4.48-8.16,2.18-10.12,6.42a12.6,12.6,0,0,0-1.11,4.73c-.16,4-.06,8-.06,12C268,230.77,268,231,268,231.3Z" transform="translate(-74.81 -179.4)"/><path d="M712.14,184.73h32.4v1.53q0,71.75,0,143.49a13.19,13.19,0,0,0,.88,4.78c1.55,3.89,4.89,5.41,8.78,5.55a86.59,86.59,0,0,0,8.93-.53c.39,0,.77-.12,1.29-.2.84,9,1.67,18,2.52,27-2.09.28-4.08.68-6.09.81-6.38.39-12.76.84-19.15,1a33.94,33.94,0,0,1-14.23-2.85c-8.61-3.75-13.43-10.43-14.86-19.59a46.16,46.16,0,0,1-.49-7.05q0-76.18,0-152.37Z" transform="translate(-74.81 -179.4)"/></svg>