<svg id="Logo_3a" data-name="Logo 3a" xmlns="http://www.w3.org/2000/svg" viewBox="0 0 692.28 236.48"><defs><style>.cls-1{fill:#fff;}</style></defs><title>White Ofqual Logo 2018</title><path class="cls-1" d="M351.67,236.48H319.38V172.1c-.82.86-1.42,1.45-2,2.09a40.5,40.5,0,0,1-27.12,14.29c-17.51,1.79-32.9-3.1-45.68-15.41-10-9.68-15.71-21.75-18.45-35.23a89.25,89.25,0,0,1,3.19-48.78c3.65-10.17,9.19-19.14,17.38-26.33a53,53,0,0,1,33.34-13.46c7.79-.36,15.42.39,22.57,3.79a47.63,47.63,0,0,1,15.5,11.68c.32.36.66.69,1.16,1.21V52h32.38ZM320.33,119c0-4.6.11-9.2,0-13.79-.25-8.65-3.76-15.68-10.85-20.75-6.18-4.41-13.23-5.82-20.68-5.45C276.17,79.67,267,85.77,262,97.29c-6,13.83-5.89,28.08-.72,42.17A28.63,28.63,0,0,0,278,156.81a35,35,0,0,0,20.27,1.49c13.7-2.76,22.33-13.59,22.05-26.68C320.26,127.43,320.33,123.23,320.33,119Z"/><path class="cls-1" d="M0,119.05C0,105,3,91.74,10.3,79.67,20.43,63,35.3,53.19,54.52,50.1c12.16-2,24.19-1.15,35.76,3.29,18.73,7.18,31,20.7,37.52,39.47A80.8,80.8,0,0,1,131.67,127,70.54,70.54,0,0,1,120,161.1c-9.76,14.42-23.34,23.24-40.39,26.48-13.55,2.57-26.93,1.66-39.77-3.72-17.35-7.27-28.9-20.1-35.35-37.65A76,76,0,0,1,0,122.52C0,121.36,0,120.2,0,119.05Zm98.89-.6a55.46,55.46,0,0,0-1.58-13.65c-1.74-6.92-4.72-13.18-10.09-18-8.31-7.5-18.19-9.15-28.78-7C47.62,82.06,40.56,89,36.65,99.13c-4.34,11.23-4.44,22.8-1.77,34.43a33.55,33.55,0,0,0,9.85,17.62A29.7,29.7,0,0,0,63.13,159c14.11,1.08,25.71-5.34,31.54-18C97.88,134,98.93,126.65,98.9,118.45Z"/><path class="cls-1" d="M692.28,204.3v32.17H369.79V204.3Z"/><path class="cls-1" d="M623.33,165.71l-4.72,7.49c-3.07,4.87-6.16,9.72-9.2,14.61a1.5,1.5,0,0,1-1.72.81c-9.75-1.23-17.07-6.13-22.16-14.47-.35-.58-.7-1.16-.85-1.44-1.57,1.41-3.19,2.76-4.71,4.23-7.4,7.2-16.43,10.73-26.56,11.66-9.87.91-19.4-.48-28.28-5.08-10.89-5.64-18.83-14-22-26.05-3.22-12.31-1.5-24,6.74-34.16,5.46-6.71,12.75-10.77,21-12.88,5.2-1.34,10.56-2.11,15.89-2.93,11-1.69,22-3.24,33-4.84,1.11-10.06-2.12-20.61-13.76-24-7.64-2.2-15.33-1.86-23-.16a100.29,100.29,0,0,0-24.31,8.62c-.35.18-.72.32-1.2.54L505,63.3c1.78-.89,3.5-1.8,5.26-2.62a120.09,120.09,0,0,1,32.45-10.22c13.34-2.05,26.64-1.93,39.68,1.83,12.15,3.51,21.27,10.81,26.48,22.54a43.31,43.31,0,0,1,3.39,17.66q.12,29.22.08,58.43c0,5.29,2,9.38,6.52,12.13C620.3,163.93,621.78,164.79,623.33,165.71Zm-43.4-40a4.12,4.12,0,0,0-.56,0q-12,2-24,4.08c-3.53.61-7.12,1-10.42,2.6-3.52,1.68-6.46,4-8,7.72-3.55,8.79,1.32,19.13,10.52,22.35a29.79,29.79,0,0,0,13.84,1.1,20.53,20.53,0,0,0,18.34-19.24c.34-5.25.17-10.54.22-15.81C579.94,127.64,579.93,126.73,579.93,125.75Z"/><path class="cls-1" d="M369.69,52h32.4v1.56q0,38.88,0,77.75a37.41,37.41,0,0,0,2.44,14.08c2.89,7.21,8.16,11.52,15.81,12.75,8,1.29,15.46-.16,21.82-5.52,4.91-4.14,7.61-9.64,8.86-15.8A55.37,55.37,0,0,0,452.2,126c.1-24.12.05-48.24.05-72.35V52h32.24V186.21H452.3V172.42c-1,1-1.83,1.67-2.61,2.42C443.91,180.4,437.52,185,429.62,187c-14.5,3.62-28.44,2.46-41.21-5.88-9.91-6.47-15.46-16-17.65-27.44a61.35,61.35,0,0,1-1-11.32q-.12-44.44-.05-88.91Z"/><path class="cls-1" d="M0,204.29H301.3v32.19H0Z"/><path class="cls-1" d="M193.21,51.91h26.14V79.62H193.16V186.21H160.78V79.65H139V51.94h21.78V50.38c0-6.4-.12-12.8.08-19.19.24-7.76,2.73-14.74,8.2-20.43,4.45-4.64,10-7.29,16.17-8.89A68.33,68.33,0,0,1,206.64.17c6.54.39,13.06,1,19.59,1.5a8.25,8.25,0,0,1,1,.2c-.88,8.94-1.75,17.84-2.64,26.91l-3.8-.39A80.17,80.17,0,0,0,204.42,28c-4.39.48-8.15,2.18-10.12,6.43a12.59,12.59,0,0,0-1.11,4.72c-.15,4-.05,8-.05,12C193.14,51.38,193.18,51.57,193.21,51.91Z"/><path class="cls-1" d="M637.33,5.33h32.4V6.86q0,71.75,0,143.5a13.18,13.18,0,0,0,.88,4.77c1.55,3.9,4.89,5.41,8.78,5.55a83.57,83.57,0,0,0,8.93-.53,11.47,11.47,0,0,0,1.29-.2c.84,9,1.67,18,2.52,27.05-2.09.29-4.08.69-6.09.81-6.38.39-12.76.85-19.15,1a33.63,33.63,0,0,1-14.23-2.85c-8.61-3.75-13.43-10.42-14.86-19.59a46,46,0,0,1-.49-7q0-76.18,0-152.37Z"/></svg>